<svg width="177" height="19" viewBox="0 0 177 19" fill="none" xmlns="http://www.w3.org/2000/svg">
<path d="M10.4551 10.1465H6.05078V14.5508H4.81055V10.1465H0.40625V8.92578H4.81055V4.52148H6.05078V8.92578H10.4551V10.1465ZM20.9715 15H14.3895V14.3066C14.5848 14.2936 14.8875 14.2676 15.2977 14.2285C15.7143 14.1829 16.0008 14.1374 16.157 14.0918C16.3589 14.0267 16.5118 13.9225 16.616 13.7793C16.7267 13.6296 16.782 13.4082 16.782 13.1152V6.25977H14.3504V5.43945H14.8875C15.5906 5.43945 16.2189 5.30924 16.7723 5.04883C17.3322 4.78841 17.7326 4.50846 17.9734 4.20898H18.784C18.7645 4.63216 18.7449 5.12695 18.7254 5.69336C18.7059 6.25977 18.6961 6.76758 18.6961 7.2168V13.0078C18.6961 13.2357 18.7449 13.4408 18.8426 13.623C18.9467 13.7988 19.0932 13.929 19.282 14.0137C19.4513 14.0853 19.728 14.1504 20.1121 14.209C20.4962 14.2676 20.7827 14.3001 20.9715 14.3066V15ZM27.6207 18.5645C27.0087 18.5645 26.4488 18.4863 25.941 18.3301C25.4332 18.1803 24.997 17.9753 24.6324 17.7148C24.2678 17.4544 23.9846 17.1549 23.7828 16.8164C23.5875 16.4779 23.4898 16.1296 23.4898 15.7715C23.4898 15.4525 23.568 15.166 23.7242 14.9121C23.8805 14.6517 24.1311 14.5215 24.4762 14.5215C24.8668 14.5215 25.163 14.6191 25.3648 14.8145C25.5732 15.0033 25.6773 15.2214 25.6773 15.4688C25.6773 15.6771 25.6415 15.9408 25.5699 16.2598C25.5048 16.5788 25.4527 16.8066 25.4137 16.9434C25.4592 17.002 25.5406 17.0801 25.6578 17.1777C25.7815 17.2754 25.9312 17.3633 26.107 17.4414C26.3154 17.5391 26.5335 17.6172 26.7613 17.6758C26.9892 17.7344 27.3115 17.7637 27.7281 17.7637C28.1187 17.7637 28.4931 17.6986 28.8512 17.5684C29.2158 17.4382 29.5348 17.2298 29.8082 16.9434C30.0947 16.6439 30.316 16.2923 30.4723 15.8887C30.635 15.4915 30.7164 14.9674 30.7164 14.3164C30.7164 13.9648 30.6773 13.6165 30.5992 13.2715C30.5276 12.9264 30.3909 12.627 30.1891 12.373C29.9872 12.1191 29.7105 11.9238 29.359 11.7871C29.0139 11.6439 28.5745 11.5723 28.0406 11.5723H26.7613V10.4492H27.6109C28.5094 10.4492 29.1572 10.2018 29.5543 9.70703C29.9514 9.21224 30.15 8.4668 30.15 7.4707C30.15 6.6569 29.9579 6.04492 29.5738 5.63477C29.1897 5.2181 28.6461 5.00977 27.943 5.00977C27.6044 5.00977 27.3245 5.05208 27.1031 5.13672C26.8883 5.21484 26.7125 5.29297 26.5758 5.37109C26.413 5.46224 26.2796 5.56315 26.1754 5.67383C26.0712 5.78451 25.9931 5.86589 25.941 5.91797C25.9866 6.1263 26.0419 6.38346 26.107 6.68945C26.1721 6.98893 26.2047 7.27539 26.2047 7.54883C26.2047 7.78971 26.1005 8.00781 25.8922 8.20312C25.6904 8.39193 25.3909 8.48633 24.9937 8.48633C24.6487 8.48633 24.3948 8.36263 24.232 8.11523C24.0758 7.86784 23.9977 7.58138 23.9977 7.25586C23.9977 6.91732 24.0921 6.57227 24.2809 6.2207C24.4697 5.86914 24.7496 5.54036 25.1207 5.23438C25.4918 4.92839 25.9443 4.68099 26.4781 4.49219C27.012 4.30339 27.6272 4.20898 28.3238 4.20898C29.1246 4.20898 29.7854 4.32943 30.3062 4.57031C30.8336 4.80469 31.247 5.09115 31.5465 5.42969C31.8395 5.76172 32.0413 6.11003 32.152 6.47461C32.2626 6.83919 32.318 7.15169 32.318 7.41211C32.318 7.73763 32.2724 8.06641 32.1812 8.39844C32.0901 8.72396 31.9404 9.02669 31.732 9.30664C31.5042 9.61263 31.2014 9.89258 30.8238 10.1465C30.4527 10.3939 29.984 10.5957 29.4176 10.752V10.9082C29.7822 10.9408 30.1695 11.0221 30.5797 11.1523C30.9964 11.2826 31.3707 11.4746 31.7027 11.7285C32.0478 11.9954 32.331 12.3405 32.5523 12.7637C32.7737 13.1803 32.8844 13.7109 32.8844 14.3555C32.8844 15.6055 32.3831 16.6178 31.3805 17.3926C30.3779 18.1738 29.1246 18.5645 27.6207 18.5645ZM51.6223 10.498C51.6223 11.1751 51.4986 11.8099 51.2512 12.4023C51.0103 12.9948 50.6848 13.4993 50.2746 13.916C49.7993 14.3913 49.272 14.7428 48.6926 14.9707C48.1197 15.1986 47.5207 15.3125 46.8957 15.3125C46.173 15.3125 45.5187 15.179 44.9328 14.9121C44.3469 14.6452 43.8488 14.2676 43.4387 13.7793C43.022 13.2845 42.6997 12.679 42.4719 11.9629C42.244 11.2467 42.1301 10.4427 42.1301 9.55078C42.1301 7.22656 42.8202 5.26693 44.2004 3.67188C45.5871 2.07682 47.4426 1.11979 49.7668 0.800781L49.9426 1.67969L49.0637 1.83594C47.6509 2.29167 46.5572 3.0013 45.7824 3.96484C45.0142 4.92839 44.5161 6.09701 44.2883 7.4707C44.8482 6.98242 45.4016 6.63737 45.9484 6.43555C46.4953 6.23372 47.0715 6.13281 47.677 6.13281C48.7642 6.13281 49.6919 6.54948 50.4602 7.38281C51.2349 8.21615 51.6223 9.25456 51.6223 10.498ZM49.5031 10.7617C49.5031 9.70703 49.259 8.86068 48.7707 8.22266C48.2889 7.58464 47.6411 7.26562 46.8273 7.26562C46.3391 7.26562 45.8833 7.35677 45.4602 7.53906C45.0435 7.72135 44.6398 8.02734 44.2492 8.45703C44.2427 8.53516 44.2329 8.71745 44.2199 9.00391C44.2069 9.28385 44.2004 9.50521 44.2004 9.66797C44.2004 11.1914 44.4478 12.3861 44.9426 13.252C45.4439 14.1113 46.1014 14.541 46.9152 14.541C47.69 14.541 48.315 14.2057 48.7902 13.5352C49.2655 12.8581 49.5031 11.9336 49.5031 10.7617ZM63.7012 5.15625L56.7383 18.5645H55.5176L62.0703 6.16211H58.2324C57.666 6.16211 57.2233 6.16862 56.9043 6.18164C56.5853 6.19466 56.2923 6.25651 56.0254 6.36719C55.8236 6.45182 55.6413 6.66992 55.4785 7.02148C55.3223 7.36654 55.2018 7.80924 55.1172 8.34961H54.5215V4.52148H63.7012V5.15625ZM75.4969 14.1211H73.5145V18.5645H71.6395V14.1211H65.3895V12.6172L72.2352 4.26758H73.5145V12.8418H75.4969V14.1211ZM71.6395 12.8418V6.44531L66.366 12.8418H71.6395ZM91.6762 10.4199C92.1059 10.7585 92.4607 11.1947 92.7406 11.7285C93.0271 12.2624 93.1703 12.9297 93.1703 13.7305C93.1703 15.1302 92.6918 16.2858 91.7348 17.1973C90.7777 18.1087 89.5635 18.5645 88.0922 18.5645C86.9529 18.5645 85.9893 18.2943 85.2016 17.7539C84.4138 17.2135 84.0199 16.5853 84.0199 15.8691C84.0199 15.5371 84.1013 15.2474 84.2641 15C84.4268 14.7526 84.6775 14.6289 85.016 14.6289C85.4066 14.6289 85.7029 14.7331 85.9047 14.9414C86.113 15.1432 86.2172 15.3646 86.2172 15.6055C86.2172 15.8138 86.1814 16.0742 86.1098 16.3867C86.0381 16.6992 85.9828 16.9303 85.9437 17.0801C85.9958 17.1257 86.0805 17.1875 86.1977 17.2656C86.3148 17.3438 86.4548 17.4186 86.6176 17.4902C86.7868 17.5618 86.9919 17.6237 87.2328 17.6758C87.4802 17.7344 87.7667 17.7637 88.0922 17.7637C88.5089 17.7637 88.9027 17.679 89.2738 17.5098C89.6449 17.3405 89.9574 17.0898 90.2113 16.7578C90.4913 16.3932 90.6996 15.9766 90.8363 15.5078C90.9796 15.0456 91.0512 14.4564 91.0512 13.7402C91.0512 12.8223 90.794 12.0638 90.2797 11.4648C89.7719 10.8594 89.1013 10.5566 88.268 10.5566C87.7471 10.5566 87.2589 10.6543 86.8031 10.8496C86.3539 11.0449 85.9503 11.3704 85.5922 11.8262L84.9379 11.5723L85.768 4.52148H92.7602V6.25977H86.559L86.0512 10.4004C86.3441 10.1921 86.7283 9.98698 87.2035 9.78516C87.6853 9.57682 88.2126 9.47266 88.7855 9.47266C89.2608 9.47266 89.7523 9.54753 90.2602 9.69727C90.7745 9.84049 91.2465 10.0814 91.6762 10.4199ZM105.708 10.498C105.708 11.1751 105.585 11.8099 105.337 12.4023C105.096 12.9948 104.771 13.4993 104.361 13.916C103.885 14.3913 103.358 14.7428 102.779 14.9707C102.206 15.1986 101.607 15.3125 100.982 15.3125C100.259 15.3125 99.6047 15.179 99.0188 14.9121C98.4328 14.6452 97.9348 14.2676 97.5246 13.7793C97.1079 13.2845 96.7857 12.679 96.5578 11.9629C96.33 11.2467 96.216 10.4427 96.216 9.55078C96.216 7.22656 96.9061 5.26693 98.2863 3.67188C99.673 2.07682 101.529 1.11979 103.853 0.800781L104.029 1.67969L103.15 1.83594C101.737 2.29167 100.643 3.0013 99.8684 3.96484C99.1001 4.92839 98.6021 6.09701 98.3742 7.4707C98.9341 6.98242 99.4875 6.63737 100.034 6.43555C100.581 6.23372 101.157 6.13281 101.763 6.13281C102.85 6.13281 103.778 6.54948 104.546 7.38281C105.321 8.21615 105.708 9.25456 105.708 10.498ZM103.589 10.7617C103.589 9.70703 103.345 8.86068 102.857 8.22266C102.375 7.58464 101.727 7.26562 100.913 7.26562C100.425 7.26562 99.9693 7.35677 99.5461 7.53906C99.1294 7.72135 98.7258 8.02734 98.3352 8.45703C98.3286 8.53516 98.3189 8.71745 98.3059 9.00391C98.2928 9.28385 98.2863 9.50521 98.2863 9.66797C98.2863 11.1914 98.5337 12.3861 99.0285 13.252C99.5298 14.1113 100.187 14.541 101.001 14.541C101.776 14.541 102.401 14.2057 102.876 13.5352C103.351 12.8581 103.589 11.9336 103.589 10.7617ZM117.787 5.15625L110.824 18.5645H109.604L116.156 6.16211H112.318C111.752 6.16211 111.309 6.16862 110.99 6.18164C110.671 6.19466 110.378 6.25651 110.111 6.36719C109.91 6.45182 109.727 6.66992 109.564 7.02148C109.408 7.36654 109.288 7.80924 109.203 8.34961H108.607V4.52148H117.787V5.15625ZM135.07 5.15625L128.107 18.5645H126.886L133.439 6.16211H129.601C129.035 6.16211 128.592 6.16862 128.273 6.18164C127.954 6.19466 127.661 6.25651 127.394 6.36719C127.192 6.45182 127.01 6.66992 126.847 7.02148C126.691 7.36654 126.571 7.80924 126.486 8.34961H125.89V4.52148H135.07V5.15625ZM144.512 10.4199C144.942 10.7585 145.297 11.1947 145.577 11.7285C145.863 12.2624 146.006 12.9297 146.006 13.7305C146.006 15.1302 145.528 16.2858 144.571 17.1973C143.614 18.1087 142.399 18.5645 140.928 18.5645C139.789 18.5645 138.825 18.2943 138.038 17.7539C137.25 17.2135 136.856 16.5853 136.856 15.8691C136.856 15.5371 136.937 15.2474 137.1 15C137.263 14.7526 137.513 14.6289 137.852 14.6289C138.243 14.6289 138.539 14.7331 138.741 14.9414C138.949 15.1432 139.053 15.3646 139.053 15.6055C139.053 15.8138 139.017 16.0742 138.946 16.3867C138.874 16.6992 138.819 16.9303 138.78 17.0801C138.832 17.1257 138.916 17.1875 139.034 17.2656C139.151 17.3438 139.291 17.4186 139.454 17.4902C139.623 17.5618 139.828 17.6237 140.069 17.6758C140.316 17.7344 140.603 17.7637 140.928 17.7637C141.345 17.7637 141.739 17.679 142.11 17.5098C142.481 17.3405 142.793 17.0898 143.047 16.7578C143.327 16.3932 143.536 15.9766 143.672 15.5078C143.816 15.0456 143.887 14.4564 143.887 13.7402C143.887 12.8223 143.63 12.0638 143.116 11.4648C142.608 10.8594 141.937 10.5566 141.104 10.5566C140.583 10.5566 140.095 10.6543 139.639 10.8496C139.19 11.0449 138.786 11.3704 138.428 11.8262L137.774 11.5723L138.604 4.52148H145.596V6.25977H139.395L138.887 10.4004C139.18 10.1921 139.564 9.98698 140.039 9.78516C140.521 9.57682 141.049 9.47266 141.621 9.47266C142.097 9.47266 142.588 9.54753 143.096 9.69727C143.61 9.84049 144.082 10.0814 144.512 10.4199ZM162.303 10.4199C162.732 10.7585 163.087 11.1947 163.367 11.7285C163.654 12.2624 163.797 12.9297 163.797 13.7305C163.797 15.1302 163.318 16.2858 162.361 17.1973C161.404 18.1087 160.19 18.5645 158.719 18.5645C157.579 18.5645 156.616 18.2943 155.828 17.7539C155.04 17.2135 154.646 16.5853 154.646 15.8691C154.646 15.5371 154.728 15.2474 154.891 15C155.053 14.7526 155.304 14.6289 155.643 14.6289C156.033 14.6289 156.329 14.7331 156.531 14.9414C156.74 15.1432 156.844 15.3646 156.844 15.6055C156.844 15.8138 156.808 16.0742 156.736 16.3867C156.665 16.6992 156.609 16.9303 156.57 17.0801C156.622 17.1257 156.707 17.1875 156.824 17.2656C156.941 17.3438 157.081 17.4186 157.244 17.4902C157.413 17.5618 157.618 17.6237 157.859 17.6758C158.107 17.7344 158.393 17.7637 158.719 17.7637C159.135 17.7637 159.529 17.679 159.9 17.5098C160.271 17.3405 160.584 17.0898 160.838 16.7578C161.118 16.3932 161.326 15.9766 161.463 15.5078C161.606 15.0456 161.678 14.4564 161.678 13.7402C161.678 12.8223 161.421 12.0638 160.906 11.4648C160.398 10.8594 159.728 10.5566 158.895 10.5566C158.374 10.5566 157.885 10.6543 157.43 10.8496C156.98 11.0449 156.577 11.3704 156.219 11.8262L155.564 11.5723L156.395 4.52148H163.387V6.25977H157.186L156.678 10.4004C156.971 10.1921 157.355 9.98698 157.83 9.78516C158.312 9.57682 158.839 9.47266 159.412 9.47266C159.887 9.47266 160.379 9.54753 160.887 9.69727C161.401 9.84049 161.873 10.0814 162.303 10.4199ZM176.423 14.1211H174.44V18.5645H172.565V14.1211H166.315V12.6172L173.161 4.26758H174.44V12.8418H176.423V14.1211ZM172.565 12.8418V6.44531L167.292 12.8418H172.565Z" fill="#F1CDB3"/>
</svg>
